<?xml version="1.0" encoding="UTF-8" standalone="no"?>
<!DOCTYPE svg PUBLIC "-//W3C//DTD SVG 1.1//EN"
 "http://www.w3.org/Graphics/SVG/1.1/DTD/svg11.dtd">
<!-- Generated by graphviz version 2.38.0 (20140413.2041)
 -->
<!-- Title: G Pages: 1 -->
<svg width="117pt" height="204pt"
 viewBox="0.00 0.00 117.00 204.00" xmlns="http://www.w3.org/2000/svg" xmlns:xlink="http://www.w3.org/1999/xlink">
<g id="graph0" class="graph" transform="scale(1 1) rotate(0) translate(4 200)">
<title>G</title>
<polygon fill="white" stroke="none" points="-4,4 -4,-200 113,-200 113,4 -4,4"/>
<g id="clust1" class="cluster"><title>cluster_Global</title>
<path fill="none" stroke="gray" d="M20,-8C20,-8 89,-8 89,-8 95,-8 101,-14 101,-20 101,-20 101,-176 101,-176 101,-182 95,-188 89,-188 89,-188 20,-188 20,-188 14,-188 8,-182 8,-176 8,-176 8,-20 8,-20 8,-14 14,-8 20,-8"/>
<text text-anchor="middle" x="54.5" y="-175.2" font-family="Times New Roman,serif" font-size="11.00" fill="gray">Global</text>
</g>
<!-- \\BI -->
<g id="node1" class="node"><title>\\BI</title>
<polygon fill="none" stroke="black" points="81.5,-160 27.5,-160 27.5,-124 81.5,-124 81.5,-160"/>
<text text-anchor="middle" x="54.5" y="-139.2" font-family="Courier,monospace" font-size="11.00">BI</text>
</g>
<!-- \\Customers -->
<g id="node2" class="node"><title>\\Customers</title>
<polygon fill="none" stroke="black" points="93,-106 16,-106 16,-70 93,-70 93,-106"/>
<text text-anchor="middle" x="54.5" y="-85.2" font-family="Courier,monospace" font-size="11.00">Customers</text>
</g>
<!-- \\Login -->
<g id="node3" class="node"><title>\\Login</title>
<polygon fill="none" stroke="black" points="81.5,-52 27.5,-52 27.5,-16 81.5,-16 81.5,-52"/>
<text text-anchor="middle" x="54.5" y="-31.2" font-family="Courier,monospace" font-size="11.00">Login</text>
</g>
</g>
</svg>
